<?xml version="1.0" encoding="iso-8859-1"?>
<!-- Uploaded to: SVG Repo, www.svgrepo.com, Generator: SVG Repo Mixer Tools -->
<svg height="800px" width="800px" version="1.1" id="Layer_1" xmlns="http://www.w3.org/2000/svg" xmlns:xlink="http://www.w3.org/1999/xlink" 
	 viewBox="0 0 512 512" xml:space="preserve">
<path style="fill:#FA6E51;" d="M512,256.006C512,397.402,397.394,512.004,256.004,512C114.606,512.004,0,397.402,0,256.006
	C-0.007,114.61,114.606,0,256.004,0C397.394,0,512,114.614,512,256.006z"/>
<path style="fill:#E8573F;" d="M509.904,288.273c-0.284-0.294-181.244-181.292-181.763-181.763
	c-9.127-9.047-21.971-14.777-36.291-14.777c-13.671,0-26.509,5.199-35.85,14.234c-9.329-9.035-22.163-14.234-35.85-14.234
	c-27.581,0-50.017,20.978-50.017,46.769c0,16.784,16.365,37.867,42.331,63.946c0.489,0.495,52.659,52.657,53.025,53.026
	c-3.123,2.869-6.279,5.783-9.489,8.761c-46.173-42.831-83.574-75.435-109.386-75.435c-28.204,0-51.147,21.533-51.147,47.995
	c0,13.037,5.574,25.229,15.291,34.154c-9.716,8.916-15.291,21.102-15.291,34.146c0,13.473,5.987,25.62,15.545,34.341
	c0.499,0.495,169.996,170.042,170.517,170.517c0.241,0.241,0.483,0.477,0.719,0.719
	C400.656,498.618,495.107,405.853,509.904,288.273z"/>
<g>
	<path style="fill:#F4F6F9;" d="M250.925,239.084c1.429,1.319,3.248,1.983,5.068,1.983c1.815,0,3.635-0.663,5.065-1.983
		c44.213-40.804,80.81-76.548,80.81-100.581c0-25.791-22.436-46.769-50.017-46.769c-13.671,0-26.509,5.199-35.85,14.234
		c-9.33-9.035-22.163-14.234-35.85-14.234c-27.581,0-50.017,20.978-50.017,46.769C170.133,162.535,203.62,195.348,250.925,239.084z
		 M220.15,106.667c12.105,0,23.205,5.615,29.695,15.028c1.393,2.013,3.69,3.222,6.14,3.222h0.007c2.45,0,4.743-1.203,6.14-3.216
		c6.518-9.413,17.628-15.036,29.717-15.036c19.345,0,35.084,14.285,35.084,31.836c0,18.338-42.277,58.414-70.937,84.933
		c-31.435-29.116-70.93-66.58-70.93-84.933C185.067,120.951,200.805,106.667,220.15,106.667z"/>
	<path style="fill:#F4F6F9;" d="M416.533,236.794c0-26.462-22.94-47.994-51.133-47.994c-25.829,0-63.232,32.61-109.401,75.434
		c-46.172-42.83-83.574-75.434-109.386-75.434c-28.204,0-51.148,21.533-51.148,47.994c0,13.038,5.574,25.229,15.291,34.155
		c-9.716,8.917-15.291,21.102-15.291,34.147c0,26.454,22.925,47.972,51.104,47.972c23.639,0,58.51-28.732,98.642-65.47
		c-1.957,25.285-0.817,90.037,54.884,131.204c1.334,0.992,2.887,1.466,4.43,1.466c2.289,0,4.546-1.05,6.012-3.026
		c2.45-3.317,1.75-7.991-1.568-10.442c-55.408-40.956-49.863-110.9-48.162-124.689c42.644,39.33,79.803,70.956,104.592,70.956
		c28.193,0,51.133-21.518,51.133-47.972c0-13.044-5.574-25.229-15.291-34.147C410.959,262.022,416.533,249.831,416.533,236.794z
		 M146.571,338.133c-19.942,0-36.171-14.823-36.171-33.039c0-11.207,6.22-21.569,16.643-27.715c2.275-1.342,3.671-3.785,3.671-6.431
		c0-2.64-1.396-5.083-3.667-6.431c-10.423-6.155-16.646-16.523-16.646-27.723c0-18.229,16.245-33.06,36.214-33.06
		c20.971,0,62.322,37.253,94.668,67.207C211.663,298.329,167.388,338.133,146.571,338.133z M401.6,305.094
		c0,18.214-16.239,33.039-36.199,33.039c-20.796,0-65.063-39.805-94.686-67.193c32.346-29.954,73.693-67.207,94.686-67.207
		c19.961,0,36.199,14.831,36.199,33.06c0,11.2-6.223,21.569-16.646,27.723c-2.271,1.349-3.667,3.792-3.667,6.431
		c0,2.646,1.396,5.089,3.671,6.431C395.38,283.526,401.6,293.888,401.6,305.094z"/>
</g>
</svg>